<?xml version="1.0" standalone="no"?>
<!DOCTYPE svg PUBLIC "-//W3C//DTD SVG 20010904//EN"
 "http://www.w3.org/TR/2001/REC-SVG-20010904/DTD/svg10.dtd">
<svg version="1.0" xmlns="http://www.w3.org/2000/svg"
 width="5000.000000pt" height="5000.000000pt" viewBox="0 0 5000.000000 5000.000000"
 preserveAspectRatio="xMidYMid meet">

<g transform="translate(0.000000,5000.000000) scale(0.100000,-0.100000)"
fill="#000000" stroke="none">
<path d="M26450 46230 c-617 -117 -1150 -413 -1412 -785 -152 -214 -258 -546
-317 -990 -33 -244 -53 -698 -43 -968 4 -98 5 -183 2 -190 -3 -8 -39 -13 -105
-15 -516 -13 -1089 -168 -1530 -414 -369 -205 -666 -459 -940 -803 -536 -674
-850 -1523 -914 -2470 -9 -134 -7 -561 3 -650 3 -27 10 -98 16 -157 74 -749
354 -1474 784 -2028 99 -129 371 -403 486 -492 149 -114 281 -197 440 -277
140 -69 381 -161 424 -161 12 0 16 -6 12 -17 -3 -10 -107 -405 -231 -878 -124
-473 -233 -886 -242 -917 l-16 -58 -346 0 c-906 0 -1949 -72 -2911 -200 -262
-35 -756 -111 -914 -140 -61 -11 -117 -20 -126 -20 -16 0 -920 1128 -920 1147
0 5 25 28 56 53 83 66 262 255 342 362 259 345 439 769 521 1228 59 332 71
764 30 1120 -56 491 -210 1000 -450 1487 -245 498 -537 902 -920 1278 -568
555 -1253 920 -1924 1025 -317 50 -697 48 -1030 -6 -270 -43 -589 -136 -827
-238 -13 -6 -20 4 -37 50 -49 130 -159 381 -241 551 -259 535 -550 948 -810
1148 -181 139 -417 235 -696 282 -137 23 -562 25 -724 4 -103 -13 -307 -51
-380 -71 l-37 -10 -166 -387 c-92 -213 -165 -388 -164 -390 2 -1 99 -16 217
-33 380 -55 906 -140 1202 -194 221 -41 276 -65 379 -166 226 -223 432 -732
549 -1354 l28 -150 -43 -60 c-163 -231 -354 -625 -454 -938 -69 -218 -124
-473 -153 -708 -22 -176 -16 -582 11 -785 109 -820 449 -1595 1005 -2285 208
-259 528 -581 806 -811 427 -352 936 -587 1445 -664 61 -9 121 -18 135 -21 44
-7 262 -19 360 -19 338 0 753 69 1052 174 47 17 91 31 96 31 6 0 52 -75 103
-167 51 -93 125 -226 164 -298 145 -262 237 -436 234 -440 -2 -2 -148 -40
-324 -84 -887 -223 -1682 -479 -2475 -796 l-305 -122 -23 86 c-187 709 -600
1343 -1172 1802 -475 381 -1029 621 -1651 714 -154 23 -278 30 -524 29 -290
-1 -532 -32 -795 -100 -1097 -286 -1969 -1094 -2335 -2164 -189 -554 -232
-1156 -124 -1735 163 -874 668 -1655 1405 -2171 60 -41 116 -80 124 -84 11 -6
12 -13 5 -23 -5 -8 -66 -88 -134 -178 -141 -187 -299 -423 -391 -584 -35 -60
-81 -131 -102 -157 -148 -180 -278 -422 -358 -666 -100 -304 -135 -545 -134
-927 1 -409 51 -750 169 -1140 99 -330 178 -518 422 -1000 157 -310 241 -534
290 -765 24 -113 26 -147 27 -350 1 -124 -3 -306 -9 -405 -21 -373 -8 -624 51
-980 44 -272 94 -429 199 -633 362 -699 1235 -1277 2695 -1785 178 -62 526
-173 718 -228 23 -7 42 -15 41 -18 0 -3 -60 -50 -132 -103 -203 -150 -326
-256 -518 -448 -263 -262 -396 -438 -542 -720 -162 -310 -265 -642 -308 -985
-18 -144 -16 -435 5 -579 33 -227 101 -446 201 -646 64 -128 137 -240 281
-430 452 -601 665 -1099 854 -2000 87 -415 136 -593 216 -784 50 -119 102
-196 203 -299 543 -557 2044 -1131 3614 -1381 490 -78 851 -115 1407 -142 69
-3 126 -7 128 -9 1 -1 -58 -41 -133 -89 -1266 -819 -2301 -1938 -2898 -3131
-279 -559 -430 -1028 -502 -1560 l-7 -50 144 140 c293 287 647 541 998 716
165 83 293 134 470 188 421 131 541 176 845 326 372 183 789 446 1093 689 45
36 82 62 82 58 0 -4 -18 -62 -40 -127 -166 -490 -293 -1090 -345 -1625 -22
-228 -30 -623 -16 -830 33 -479 126 -882 283 -1220 l39 -85 44 150 c239 821
673 1647 1196 2276 643 772 1421 1287 2334 1544 565 159 1704 293 2850 334
450 17 935 23 1113 16 l167 -7 48 -182 c26 -99 47 -187 47 -193 0 -7 4 -13 8
-13 14 0 149 86 227 146 l76 56 78 -30 c105 -42 232 -78 338 -97 105 -18 143
-19 143 -4 0 7 -10 72 -21 146 -12 73 -19 136 -16 139 3 4 95 1 204 -5 617
-36 1313 -100 1811 -167 l194 -26 131 89 c680 455 1184 963 1411 1421 108 217
138 353 141 647 2 236 13 292 82 428 50 101 85 149 178 246 96 101 223 204
422 342 466 324 663 508 782 729 94 176 133 339 133 560 0 832 -655 1752
-1627 2285 -446 244 -922 402 -1460 484 -289 44 -475 54 -990 55 -429 1 -975
-9 -1114 -19 -25 -2 -125 -6 -221 -10 -96 -3 -193 -8 -215 -10 -22 -2 -112 -7
-200 -10 -88 -3 -180 -8 -205 -10 -25 -2 -101 -7 -170 -10 -69 -3 -155 -8
-192 -11 l-66 -5 -11 53 c-13 68 -45 241 -70 388 -11 63 -48 268 -81 455 -76
428 -220 1236 -259 1460 -17 94 -37 242 -46 330 -9 88 -19 186 -24 218 -4 32
-5 59 -2 61 3 2 31 7 61 11 193 25 1026 178 1645 302 493 99 429 98 660 7 372
-148 751 -368 1305 -760 107 -76 427 -305 710 -509 988 -713 1179 -845 1500
-1037 873 -524 1747 -829 2665 -930 193 -21 757 -18 921 6 72 10 136 21 141
25 5 3 17 27 26 52 16 43 20 46 70 58 28 6 93 32 142 56 346 170 618 569 815
1195 131 416 179 552 265 740 110 239 210 379 456 635 188 197 275 303 384
470 343 526 484 976 445 1422 -68 771 -595 1571 -1523 2311 -375 299 -761 509
-1264 688 -611 217 -1438 363 -2278 401 -330 15 -1529 6 -1589 -12 -6 -2 -67
-6 -136 -9 -69 -4 -151 -9 -182 -13 -32 -3 -58 -3 -58 1 0 3 69 84 153 179
740 836 1561 1866 2313 2902 447 616 814 1166 1281 1920 l99 160 154 12 c1229
96 2328 318 3480 702 682 228 1294 478 1692 692 1038 559 1864 1346 2458 2344
154 259 318 599 406 843 39 108 46 107 -64 10 -170 -151 -444 -313 -749 -442
-644 -271 -1614 -469 -2597 -532 l-108 -7 52 64 c251 310 918 1466 1079 1871
175 440 266 911 286 1488 10 280 -16 691 -61 965 -25 154 -20 152 -73 25 -300
-723 -888 -1471 -1616 -2056 -227 -183 -531 -389 -810 -549 -233 -134 -765
-394 -753 -367 2 4 192 385 424 847 231 462 565 1137 743 1500 178 363 414
840 526 1060 111 220 229 465 262 545 140 335 223 616 270 920 22 144 25 544
5 660 -68 382 -220 681 -476 935 -174 173 -363 303 -639 440 -442 221 -818
317 -1177 302 -373 -16 -672 -144 -943 -406 -131 -127 -204 -216 -309 -376
-182 -277 -231 -394 -893 -2116 -720 -1872 -1102 -2831 -1578 -3954 -185 -438
-423 -984 -432 -993 -13 -14 -711 62 -1180 129 -336 47 -1257 199 -1267 208
-4 4 13 85 38 181 77 297 422 1633 479 1855 30 116 111 433 180 705 69 272
164 644 210 825 87 341 279 1101 602 2380 l187 740 0 135 c1 115 -3 146 -23
210 -85 273 -294 471 -576 546 -61 16 -110 19 -375 19 -314 0 -433 -5 -675
-31 -968 -100 -1663 -365 -1810 -689 -180 -395 -722 -2324 -1550 -5520 -97
-374 -180 -697 -186 -718 -8 -31 -13 -36 -32 -32 -76 17 -931 124 -1357 170
-369 39 -1182 105 -1293 105 l-30 0 7 83 c10 125 36 417 41 462 2 22 9 96 15
165 6 69 12 145 15 170 13 138 62 693 71 805 3 50 7 91 8 91 0 1 42 5 91 9
623 47 1259 293 1734 671 124 99 356 332 455 456 138 173 262 371 380 608 289
580 478 1206 536 1780 6 58 13 119 16 135 10 56 12 619 4 710 -5 50 -12 119
-15 155 -41 436 -179 920 -375 1310 -271 540 -749 1066 -1266 1393 l-90 57
-32 133 c-36 151 -74 357 -98 532 -19 140 -28 565 -14 665 30 208 91 369 173
452 58 60 620 430 1237 815 80 50 145 92 145 95 0 8 -607 573 -618 575 -7 1
-55 -7 -107 -17z m290 -334 c174 -163 209 -201 198 -211 -7 -7 -123 -83 -258
-167 -467 -294 -901 -581 -963 -637 -122 -109 -205 -317 -236 -591 -9 -81 -7
-468 3 -520 2 -14 7 -54 11 -90 9 -98 43 -310 71 -445 25 -125 79 -344 85
-349 2 -2 27 -16 54 -31 170 -96 427 -298 624 -490 344 -335 608 -717 770
-1114 132 -321 229 -714 261 -1051 6 -63 13 -133 15 -154 16 -127 3 -659 -20
-826 -2 -19 -7 -55 -10 -80 -90 -690 -378 -1488 -730 -2020 -142 -215 -374
-471 -565 -624 -193 -154 -457 -313 -673 -406 -372 -159 -824 -259 -1144 -253
-35 0 -63 -3 -63 -8 0 -5 -7 -82 -15 -171 -8 -90 -17 -192 -20 -228 -3 -36 -8
-83 -10 -105 -2 -22 -7 -69 -10 -105 -3 -36 -14 -164 -25 -285 -28 -309 -27
-304 -50 -565 -11 -129 -22 -255 -25 -280 -3 -25 -14 -151 -25 -280 -11 -129
-22 -253 -25 -275 -2 -22 -9 -96 -15 -165 -9 -111 -21 -245 -35 -395 -3 -27
-9 -104 -15 -170 -9 -107 -21 -241 -35 -390 -3 -27 -9 -102 -15 -165 -5 -63
-12 -140 -15 -170 -3 -30 -14 -156 -25 -280 -64 -712 -100 -1121 -105 -1165
-2 -27 -12 -131 -20 -230 -8 -99 -17 -200 -20 -225 -11 -116 -16 -167 -30
-335 -8 -99 -17 -200 -20 -225 -4 -44 -10 -114 -21 -235 -2 -33 -7 -80 -9
-105 -2 -25 -9 -99 -15 -165 -6 -66 -13 -140 -15 -165 -3 -25 -14 -148 -25
-275 -11 -126 -22 -255 -25 -285 -3 -30 -14 -156 -25 -280 -11 -124 -23 -254
-26 -290 -3 -36 -13 -150 -23 -255 -20 -218 -31 -115 99 -915 10 -63 39 -243
64 -400 25 -157 68 -424 96 -595 27 -170 68 -425 91 -565 22 -140 61 -379 85
-530 24 -151 53 -330 64 -397 11 -68 29 -178 40 -245 11 -68 40 -249 65 -402
25 -153 44 -280 42 -282 -4 -4 -172 -68 -314 -119 l-91 -34 -28 75 c-14 41
-29 74 -33 74 -9 0 -233 -69 -263 -81 -35 -14 -58 -50 -58 -91 0 -48 48 -184
77 -218 40 -48 73 -42 417 70 169 56 312 103 319 106 9 3 16 -19 25 -72 11
-71 10 -83 -15 -182 -14 -59 -27 -108 -29 -110 -1 -2 -92 -37 -201 -77 l-198
-74 -25 75 c-13 41 -29 74 -35 74 -5 0 -68 -18 -140 -40 -190 -58 -209 -85
-161 -226 30 -89 51 -130 73 -143 15 -9 12 -11 -17 -12 -19 0 -48 -2 -65 -4
-16 -1 -127 -6 -245 -10 -118 -4 -233 -8 -255 -10 -123 -9 -387 -8 -393 3 -4
6 -29 108 -57 226 -27 118 -51 214 -52 212 -2 -2 12 -103 32 -225 19 -122 35
-224 35 -226 0 -3 -44 -5 -99 -5 l-98 0 -11 53 c-6 28 -59 248 -117 487 -58
239 -154 640 -215 890 -60 250 -139 577 -175 725 -36 149 -130 540 -210 870
-80 330 -174 722 -210 870 -36 149 -84 347 -106 440 l-41 170 687 2610 c1382
5255 1733 6590 1737 6610 2 16 -3 21 -27 23 -91 10 -303 79 -446 145 -956 445
-1632 1575 -1715 2868 -9 148 -10 514 -1 634 62 821 297 1540 703 2150 457
688 1059 1115 1850 1314 273 69 495 96 777 96 l167 0 -7 135 c-13 266 -6 815
12 955 2 17 6 59 10 95 42 448 155 829 311 1047 94 132 275 291 451 397 101
60 319 161 448 206 145 51 410 121 447 117 19 -1 85 -57 238 -201z m-15175
-2936 c273 -30 519 -119 692 -249 202 -152 432 -448 639 -821 132 -240 344
-705 429 -945 15 -44 29 -81 30 -83 1 -1 49 20 106 47 263 124 571 212 939
268 127 19 574 25 730 10 587 -57 1202 -331 1734 -773 865 -718 1473 -1834
1602 -2941 24 -202 24 -623 1 -822 -67 -572 -266 -1073 -582 -1466 -93 -115
-281 -297 -367 -355 -37 -25 -68 -48 -68 -52 0 -4 110 -146 244 -315 237 -299
1163 -1466 2021 -2548 231 -292 487 -615 570 -720 433 -545 1383 -1743 1388
-1752 5 -8 -54 -248 -64 -257 -2 -2 -920 1178 -2039 2622 -1119 1444 -2046
2637 -2058 2651 -33 36 -118 159 1942 -2812 1021 -1473 1856 -2680 1856 -2682
0 -2 -30 9 -66 26 -37 16 -69 28 -71 26 -2 -2 -44 -206 -93 -452 -49 -246 -91
-449 -92 -450 -2 -2 -403 643 -893 1433 -489 789 -1041 1679 -1225 1976 -185
298 -612 987 -949 1531 -338 545 -618 995 -624 1000 -13 14 -148 264 1768
-3290 964 -1787 1760 -3265 1770 -3284 15 -31 16 -42 5 -108 -7 -40 -16 -73
-21 -73 -4 0 -41 62 -82 138 -41 75 -86 157 -99 182 -14 25 -153 277 -308 560
-156 283 -344 625 -418 760 -74 135 -172 313 -217 395 -45 83 -133 242 -195
355 -62 113 -150 273 -195 355 -45 83 -133 242 -195 355 -62 113 -150 273
-195 355 -45 83 -131 240 -192 350 -60 110 -174 317 -253 460 -78 143 -192
350 -253 460 -60 110 -161 295 -225 410 -63 116 -147 269 -187 340 -39 72 -89
162 -110 200 -37 69 -98 180 -307 560 -58 105 -189 343 -291 530 -103 187
-191 346 -196 354 -8 12 -21 9 -78 -17 -167 -77 -498 -164 -753 -197 -147 -20
-525 -28 -655 -15 -585 61 -1092 269 -1555 639 -244 194 -550 494 -749 731
-546 651 -898 1391 -1025 2150 -61 367 -63 742 -5 1088 79 478 277 977 545
1379 l84 126 -21 121 c-99 588 -285 1107 -499 1396 -99 134 -239 243 -356 280
-61 18 -747 136 -1204 205 -129 20 -236 38 -238 40 -2 2 49 127 113 278 l118
274 111 21 c295 56 572 70 831 42z m19714 -2505 c242 -16 428 -136 530 -342
75 -151 78 -249 14 -510 -26 -106 -50 -193 -53 -193 -3 0 -43 47 -89 105 -75
94 -87 105 -116 105 -18 0 -47 3 -66 7 l-33 6 19 -25 c11 -15 74 -92 139 -173
l120 -147 -29 -115 c-22 -92 -30 -113 -39 -101 -6 8 -103 128 -216 267 -113
138 -206 256 -208 260 -2 5 46 13 105 17 123 9 123 9 -117 43 -555 81 -1042
74 -1293 -16 -143 -51 -197 -97 -250 -213 -463 -1018 -2463 -8242 -2977
-10755 -69 -336 -101 -543 -107 -682 l-6 -132 59 -62 c143 -151 473 -317 954
-480 157 -54 368 -119 384 -119 3 0 -56 42 -132 93 -75 51 -156 107 -180 123
-26 18 -157 169 -345 398 -166 203 -308 378 -315 388 -11 15 -11 36 4 126 9
59 20 112 23 119 4 7 221 -252 509 -606 l503 -617 80 -26 c43 -14 79 -25 79
-23 0 2 -257 318 -570 702 l-571 698 6 50 c3 28 13 83 23 123 l17 73 670 -822
c369 -452 676 -831 684 -841 12 -17 10 -29 -14 -91 -54 -140 -94 -205 -159
-258 -133 -108 -325 -181 -706 -269 -504 -117 -645 -157 -816 -235 -192 -88
-346 -226 -427 -382 -170 -331 -485 -1327 -977 -3086 -70 -252 -130 -460 -131
-462 -4 -3 -173 -25 -175 -22 -3 4 194 716 301 1087 388 1346 716 2256 957
2658 94 156 174 224 389 332 226 114 416 174 894 285 318 73 410 100 500 148
82 44 175 133 210 202 25 50 47 155 32 155 -3 0 -64 -23 -134 -51 -314 -126
-660 -239 -930 -304 -81 -19 -197 -47 -258 -61 -152 -37 -319 -96 -433 -153
-320 -162 -515 -401 -662 -811 -97 -272 -572 -1785 -1071 -3411 l-29 -96 -48
-6 c-26 -4 -105 -11 -177 -17 -71 -6 -148 -12 -170 -15 -22 -2 -93 -7 -159
-11 -113 -7 -118 -6 -112 12 3 10 50 201 105 424 475 1930 1425 5746 1866
7490 1501 5939 2354 9115 2580 9605 76 167 323 314 735 438 348 106 886 188
1330 203 96 4 176 8 178 9 4 4 184 -3 301 -10z m6001 -201 c371 -63 872 -289
1161 -522 217 -175 383 -411 464 -657 57 -176 69 -262 69 -500 0 -182 -4 -242
-22 -349 -69 -398 -190 -731 -455 -1256 -93 -184 -347 -697 -564 -1140 -461
-939 -1183 -2383 -1479 -2955 -1457 -2826 -2633 -4841 -3672 -6295 -687 -960
-1447 -1931 -2185 -2788 -222 -258 -604 -689 -628 -709 -8 -6 -74 -17 -147
-25 l-132 -14 33 35 c334 358 884 994 1303 1506 735 898 1532 1963 2051 2740
1173 1759 2609 4357 4268 7725 191 388 525 1063 742 1500 218 437 417 845 443
906 246 570 325 1088 226 1477 -98 385 -369 679 -839 911 -406 200 -727 279
-1002 246 -330 -40 -594 -223 -821 -570 -160 -246 -209 -363 -854 -2040 -494
-1285 -567 -1471 -903 -2310 -769 -1922 -1395 -3342 -2053 -4660 -355 -709
-553 -1077 -937 -1740 -1278 -2206 -2562 -4089 -3814 -5592 -198 -238 -437
-516 -463 -539 -17 -14 -276 -67 -284 -58 -2 2 90 112 206 243 1437 1640 2922
3796 4395 6381 819 1437 1718 3382 2738 5920 302 751 480 1207 1016 2601 576
1500 642 1655 810 1905 166 247 345 415 553 521 131 66 262 103 436 122 59 7
250 -5 340 -20z m-5885 -984 c143 -176 260 -323 260 -327 0 -24 -50 -213 -56
-213 -11 0 -690 835 -681 838 18 6 131 20 172 21 l45 1 260 -320z m-225 -170
c201 -247 373 -460 384 -474 18 -24 18 -26 -9 -135 -15 -61 -29 -111 -31 -111
-1 0 -191 231 -420 513 -230 281 -435 534 -457 560 -22 26 -37 50 -35 53 6 5
167 42 188 43 8 0 179 -202 380 -449z m-177 -232 l495 -608 -26 -102 c-13 -57
-28 -106 -32 -111 -5 -6 -222 256 -1022 1239 l-108 132 88 31 c48 16 92 29 99
28 6 -1 234 -275 506 -609z m-183 -224 l592 -726 -29 -109 c-15 -60 -31 -108
-35 -107 -4 2 -295 356 -647 788 -494 606 -637 788 -628 797 19 19 129 83 143
83 6 0 278 -327 604 -726z m-225 -171 c325 -398 621 -763 659 -810 l70 -85
-28 -115 c-16 -63 -32 -111 -36 -106 -4 4 -308 377 -675 827 l-667 819 18 69
c18 69 47 129 61 127 5 0 274 -327 598 -726z m6952 595 c152 -57 256 -211 249
-369 -7 -140 -98 -263 -230 -309 -203 -72 -421 31 -495 233 -45 124 -19 254
70 352 104 112 259 148 406 93z m-7021 -960 c351 -431 655 -803 675 -828 l38
-45 -26 -105 c-14 -58 -29 -108 -32 -111 -5 -6 -588 705 -1253 1525 l-107 131
31 108 c17 59 32 107 34 107 2 0 290 -352 640 -782z m-57 -376 c363 -447 666
-820 672 -830 7 -13 3 -45 -19 -126 l-28 -109 -200 244 c-734 898 -1164 1429
-1164 1439 0 13 50 191 57 203 6 11 -84 120 682 -821z m-80 -350 c364 -447
664 -819 668 -827 5 -15 -32 -186 -47 -213 -4 -9 -239 272 -686 819 -373 458
-682 838 -686 844 -4 6 7 59 24 118 30 103 32 107 48 90 10 -10 315 -384 679
-831z m562 -1279 c-15 -59 -31 -107 -37 -105 -11 4 -1364 1661 -1371 1680 -5
11 41 193 54 214 2 5 314 -372 692 -837 l689 -844 -27 -108z m-742 604 l682
-838 -28 -109 c-15 -61 -31 -109 -35 -108 -3 2 -317 385 -697 851 l-691 848
32 110 c25 87 34 107 43 97 7 -7 319 -390 694 -851z m-103 -322 c379 -465 690
-853 692 -863 1 -9 -10 -63 -25 -119 l-28 -101 -685 839 c-377 462 -691 849
-699 860 -12 17 -10 33 15 124 16 58 31 105 35 105 3 0 316 -380 695 -845z
m-85 -343 l696 -856 -28 -110 c-16 -60 -30 -110 -32 -111 -1 -1 -218 263 -482
587 -264 325 -580 713 -702 863 l-222 273 29 103 c17 57 30 105 30 106 0 17
113 -119 711 -855z m-91 -337 c376 -462 687 -845 691 -850 8 -11 -36 -204 -50
-218 -4 -4 -324 380 -710 854 l-703 862 27 101 c32 118 34 122 50 104 6 -7
319 -391 695 -853z m-103 -322 c385 -472 702 -863 706 -870 9 -15 -43 -225
-55 -221 -4 2 -324 392 -712 867 l-704 864 19 66 c11 36 24 85 30 109 6 23 13
42 15 42 1 0 317 -386 701 -857z m-57 -377 l684 -839 -29 -114 c-23 -87 -32
-110 -41 -101 -6 7 -310 380 -675 828 -364 448 -680 836 -702 862 l-39 46 16
56 c9 31 23 81 32 111 l15 54 28 -32 c15 -18 335 -410 711 -871z m-116 -306
c388 -476 706 -873 706 -883 0 -32 -53 -218 -60 -210 -84 96 -1420 1746 -1420
1754 0 26 54 209 61 207 5 -2 325 -392 713 -868z m-103 -322 c386 -475 708
-870 715 -878 10 -12 7 -35 -16 -124 -16 -59 -30 -109 -32 -111 -2 -2 -1320
1611 -1415 1733 l-22 28 19 64 c10 36 24 84 30 108 6 23 13 42 15 42 2 0 320
-388 706 -862z m-85 -343 c363 -445 674 -828 691 -850 l32 -40 -25 -100 c-14
-55 -29 -104 -33 -108 -6 -5 -1115 1343 -1425 1731 -18 23 -18 25 8 120 15 53
29 103 31 110 6 17 -46 79 721 -863z m-18161 740 c521 -70 999 -250 1420 -536
835 -567 1369 -1517 1412 -2509 l6 -135 -219 -140 c-1472 -940 -2272 -1523
-3652 -2662 -155 -128 -291 -238 -301 -245 -17 -10 -40 -4 -148 36 -311 117
-603 283 -874 496 -135 107 -422 396 -525 530 -375 486 -585 992 -670 1615
-27 196 -25 577 4 794 131 978 671 1809 1504 2319 413 252 872 402 1383 451
135 13 522 5 660 -14z m18080 -1088 l716 -879 -28 -109 c-15 -60 -30 -109 -34
-109 -3 0 -41 44 -84 98 -44 53 -367 449 -717 880 -351 430 -638 787 -638 794
0 27 54 208 61 206 4 -2 330 -398 724 -881z m-94 -333 l721 -885 -28 -110
c-16 -60 -32 -108 -35 -107 -5 2 -1363 1666 -1440 1764 -5 5 0 39 11 75 10 35
24 83 30 107 6 23 13 42 15 42 2 0 329 -399 726 -886z m-439 91 c219 -269 979
-1203 1036 -1273 l35 -42 -29 -110 c-16 -61 -31 -110 -34 -109 -3 0 -300 363
-660 806 -360 443 -686 843 -723 889 l-68 83 21 78 c12 43 26 93 31 111 l11
32 88 -107 c48 -60 179 -220 292 -358z m258 -765 c667 -819 721 -887 716 -915
-4 -16 -16 -68 -29 -114 l-23 -85 -727 892 c-400 491 -727 896 -727 900 -1 20
56 212 62 209 4 -1 331 -400 728 -887z m-79 -350 l712 -875 -28 -113 c-27
-105 -30 -111 -46 -95 -40 43 -1431 1757 -1436 1769 -3 8 8 61 23 119 27 99
29 104 45 88 10 -10 338 -412 730 -893z m-104 -321 c395 -485 720 -885 722
-891 5 -14 -51 -219 -59 -216 -4 2 -334 403 -732 893 l-725 889 17 66 c10 36
23 84 30 108 6 23 15 40 20 37 5 -3 333 -402 727 -886z m-92 -334 c394 -484
719 -886 722 -892 6 -14 -48 -223 -57 -222 -3 0 -332 403 -732 894 l-727 894
19 68 c10 37 24 88 30 112 6 24 15 40 20 35 4 -5 331 -405 725 -889z m-88
-341 c391 -479 713 -876 717 -883 8 -13 -43 -221 -54 -221 -6 0 -1435 1746
-1452 1775 -4 7 -1 35 6 61 8 27 22 76 31 108 14 50 19 57 30 45 7 -8 332
-406 722 -885z m-72 -358 l707 -869 -29 -106 c-15 -58 -33 -104 -38 -102 -7 2
-1322 1609 -1446 1767 -5 6 2 51 16 105 36 133 32 127 59 98 13 -13 342 -415
731 -893z m-13941 418 c98 -135 175 -249 170 -253 -5 -4 -67 -43 -139 -86
-351 -211 -426 -259 -640 -403 -307 -207 -821 -563 -1135 -785 -813 -575
-1835 -1359 -2460 -1887 -173 -146 -320 -269 -326 -273 -7 -4 -77 83 -183 228
-94 128 -174 240 -177 248 -5 15 86 94 546 473 796 656 1514 1214 2005 1560
519 367 1173 801 1830 1217 121 76 243 154 270 172 28 19 52 34 55 34 3 1 86
-110 184 -245z m13816 -714 c365 -448 681 -836 702 -862 l39 -47 -30 -107
c-17 -59 -32 -108 -33 -109 -2 -2 -300 361 -663 807 -363 445 -691 847 -728
893 l-68 84 16 55 c8 31 22 81 30 111 l16 55 28 -32 c15 -18 326 -400 691
-848z m-80 -350 c392 -481 716 -880 721 -885 6 -9 -44 -211 -56 -223 -2 -2
-329 397 -728 887 l-726 889 15 59 c32 125 46 165 54 157 4 -5 328 -403 720
-884z m-75 -355 l709 -870 -28 -105 c-15 -57 -29 -107 -32 -109 -6 -7 47 -71
-737 892 l-715 878 24 92 c38 143 33 133 54 111 9 -11 336 -410 725 -889z
m-13416 672 c84 -117 153 -216 153 -221 0 -5 -114 -78 -254 -162 -338 -205
-860 -559 -1618 -1098 -487 -346 -1239 -915 -1770 -1339 -104 -83 -585 -486
-655 -548 -20 -18 -23 -16 -170 187 -83 112 -156 213 -162 222 -11 16 12 39
209 202 976 813 2183 1716 3188 2386 282 188 902 583 915 583 6 0 79 -95 164
-212z m13292 -969 c386 -475 711 -873 721 -885 20 -21 19 -22 -11 -128 -16
-59 -32 -109 -33 -110 -3 -3 -1398 1704 -1427 1746 -12 18 -12 30 3 96 24 101
36 143 41 143 2 0 320 -388 706 -862z m-86 -339 c385 -473 707 -870 714 -883
14 -22 12 -34 -13 -125 -16 -56 -32 -101 -36 -101 -4 0 -65 71 -136 158 -70
86 -375 461 -678 832 -302 371 -565 694 -584 717 l-34 42 29 110 c15 61 30
111 33 110 3 0 320 -387 705 -860z m-76 -357 l711 -873 -32 -109 c-18 -61 -35
-107 -39 -102 -32 33 -1402 1720 -1407 1731 -7 18 43 240 52 230 2 -2 324
-397 715 -877z m-6322 826 c-2 -7 -15 -55 -28 -106 -13 -50 -27 -91 -31 -90
-3 2 -40 46 -81 98 -61 77 -72 96 -58 102 9 4 58 7 110 7 71 1 92 -2 88 -11z
m2263 -108 c576 -69 1704 -241 1726 -262 2 -3 -211 -869 -475 -1924 -441
-1770 -693 -2784 -953 -3839 -56 -225 -102 -405 -104 -400 -2 6 -26 141 -54
300 -28 160 -69 387 -90 505 -44 241 -127 734 -194 1155 -25 154 -73 449 -106
655 -33 206 -83 515 -110 685 -27 171 -68 423 -90 560 -23 138 -39 266 -36
285 3 19 8 64 11 100 8 100 44 509 50 565 2 28 14 156 25 285 11 129 22 255
25 280 5 49 42 465 50 570 3 36 8 85 10 110 7 71 13 135 26 273 10 105 14 127
28 127 9 0 126 -13 261 -30z m-9715 -140 c396 -78 888 -222 1278 -376 l149
-59 167 -230 c92 -126 243 -333 336 -460 93 -126 196 -268 230 -315 34 -47
136 -186 226 -310 91 -124 168 -230 172 -237 5 -7 -8 -6 -41 3 -248 76 -1321
323 -1353 312 -8 -3 1035 -1444 1075 -1486 11 -12 526 -105 534 -97 2 1 -151
213 -338 470 -188 257 -340 469 -337 471 2 2 122 -49 266 -113 l262 -118 292
-400 292 -399 185 -43 c102 -24 195 -46 207 -51 13 -4 109 -127 234 -297 651
-889 828 -1136 812 -1131 -84 26 -336 96 -367 102 l-39 7 31 -44 c459 -636
1104 -1507 1123 -1516 13 -7 111 -36 218 -65 l193 -53 332 -455 c183 -250 336
-461 341 -469 6 -11 -37 -13 -281 -7 -159 3 -338 8 -399 11 -60 2 -184 7 -275
10 -91 3 -196 8 -235 10 -38 2 -133 7 -210 10 -77 3 -169 8 -205 10 -36 2
-108 7 -160 10 -168 9 -383 23 -470 30 -60 5 -156 12 -265 20 -101 7 -312 24
-370 30 -27 3 -126 12 -220 20 -351 32 -937 97 -1265 140 -464 61 -1290 189
-1317 203 -10 6 -109 141 -540 732 l-84 115 88 7 c370 27 1577 52 2176 44 618
-8 1238 -36 1411 -63 32 -5 38 -3 31 8 -5 8 -160 221 -345 474 -185 253 -428
587 -540 741 l-205 282 -75 6 c-455 39 -1724 36 -3042 -9 -241 -8 -469 -15
-507 -15 l-69 0 -526 720 c-289 396 -526 724 -526 729 0 9 31 13 360 41 244
21 516 36 843 46 114 4 207 8 207 10 0 2 -49 84 -109 181 -162 267 -543 897
-548 908 -3 6 4 0 14 -11 11 -12 229 -260 486 -551 l467 -530 353 -7 c401 -7
691 -20 987 -42 226 -16 592 -51 629 -60 l23 -5 -28 39 c-16 22 -265 364 -554
760 -496 680 -527 721 -560 726 -214 37 -1204 58 -1775 37 -352 -13 -709 -33
-1028 -57 -115 -8 -211 -14 -213 -11 -5 5 550 434 886 684 317 235 569 417
905 649 402 279 457 315 474 310 9 -3 66 -14 126 -26z m13655 -880 c365 -448
679 -834 698 -857 l34 -42 -33 -106 -32 -106 -23 23 c-12 13 -328 400 -703
860 l-681 836 27 117 c21 90 29 113 38 103 7 -7 311 -380 675 -828z m-8245
298 c137 -249 292 -532 345 -628 53 -96 175 -317 270 -490 228 -415 220 -400
282 -515 31 -55 76 -138 102 -184 l47 -85 -16 -74 c-8 -41 -15 -80 -15 -87 0
-7 33 -37 73 -67 l72 -55 254 -979 c140 -538 300 -1166 356 -1394 227 -917
537 -2221 531 -2228 -10 -9 -921 -13 -966 -4 -31 7 -52 32 -210 248 -662 907
-985 1349 -1448 1984 -119 162 -301 412 -406 555 -104 143 -256 350 -336 460
-399 546 -1005 1377 -1435 1965 -263 360 -543 743 -622 851 -78 108 -143 201
-143 207 0 30 1065 407 1695 600 349 108 1265 366 1316 371 3 1 118 -203 254
-451z m8182 -668 c373 -459 682 -840 686 -846 7 -11 -55 -209 -65 -209 -3 0
-315 379 -693 843 l-686 843 27 115 c21 94 29 113 39 102 7 -7 318 -389 692
-848z m1702 356 c223 -47 539 -110 701 -142 162 -31 297 -58 299 -60 5 -4 -57
-110 -257 -439 -1330 -2188 -2623 -3965 -3914 -5381 l-129 -141 -117 -17
c-124 -17 -376 -51 -452 -60 -25 -3 -85 -10 -135 -16 -49 -5 -106 -13 -127
-16 l-36 -5 33 118 c566 2028 891 3064 1050 3348 111 199 360 333 820 440 595
139 733 179 889 257 170 85 276 181 332 302 94 204 280 774 490 1499 41 144
84 292 95 330 14 47 25 67 36 67 9 0 199 -38 422 -84z m-2478 -748 c68 -84
133 -164 144 -178 34 -44 -142 119 -193 178 -66 78 -82 103 -82 129 0 13 2 23
4 23 2 0 59 -69 127 -152z m-18608 -953 c210 -664 540 -1256 1033 -1850 145
-176 564 -592 753 -749 287 -239 641 -491 901 -641 143 -83 470 -244 650 -320
1127 -478 2727 -857 4645 -1100 110 -14 218 -27 240 -30 39 -5 457 -51 545
-60 25 -2 88 -9 140 -15 113 -12 609 -56 730 -65 47 -3 105 -8 130 -10 25 -2
83 -7 130 -10 47 -3 141 -10 210 -15 69 -5 168 -12 220 -15 52 -3 131 -7 175
-10 217 -13 260 -15 385 -20 74 -3 158 -8 185 -10 28 -2 149 -7 270 -11 121
-3 236 -8 255 -10 81 -7 893 -19 1365 -19 477 0 1308 12 1358 20 12 2 120 6
240 10 120 4 230 8 245 10 15 1 97 6 182 9 85 4 180 9 210 11 30 2 100 7 155
10 55 3 129 8 165 10 36 3 130 9 210 15 208 14 279 20 330 25 25 3 77 7 115
10 39 3 95 8 125 10 86 8 731 76 765 80 17 3 107 14 200 25 145 17 240 30 410
55 304 44 436 65 675 106 157 27 353 63 435 79 1078 211 2066 355 2920 425
202 17 313 25 415 31 63 3 126 7 139 9 164 26 1625 26 1756 0 11 -2 68 -7 128
-10 59 -3 115 -8 125 -9 9 -2 53 -7 97 -10 134 -12 457 -55 608 -81 912 -157
1609 -426 2151 -829 178 -132 405 -326 574 -490 670 -652 1013 -1299 1014
-1916 0 -297 -62 -538 -217 -835 -193 -371 -304 -526 -607 -842 -85 -89 -183
-198 -217 -243 -178 -236 -308 -528 -476 -1070 -81 -262 -128 -386 -211 -555
-135 -277 -302 -479 -490 -592 -51 -31 -193 -87 -201 -80 -6 6 -10 42 -18 137
-18 238 -86 614 -160 892 -284 1056 -821 1831 -1590 2295 -412 249 -898 401
-1450 454 -230 23 -757 17 -1061 -11 -629 -59 -1234 -162 -2549 -436 -981
-205 -1767 -361 -2210 -439 -405 -72 -987 -164 -1285 -205 -85 -11 -202 -27
-260 -35 -93 -13 -355 -44 -625 -75 -114 -12 -605 -57 -710 -65 -44 -3 -93 -7
-110 -10 -16 -2 -86 -7 -155 -11 -69 -3 -132 -8 -140 -9 -8 -2 -89 -6 -180
-10 -91 -4 -176 -9 -190 -10 -226 -26 -2114 -26 -2283 0 -12 2 -85 6 -162 10
-77 3 -165 8 -195 10 -30 3 -118 10 -195 15 -153 11 -170 13 -420 35 -158 14
-315 30 -410 40 -129 15 -700 87 -750 95 -33 6 -186 28 -340 50 -1455 209
-2909 484 -3965 750 -2358 596 -3676 1294 -4104 2175 -111 228 -162 442 -206
870 -11 105 -14 582 -4 625 10 46 14 574 4 640 -48 320 -140 578 -366 1027
-79 155 -169 344 -202 420 -155 360 -258 734 -314 1138 -32 233 -32 645 0 859
37 240 99 460 180 639 l36 79 32 -129 c18 -70 48 -177 67 -238z m3975 -1242
c280 -384 512 -704 516 -710 6 -10 -17 -13 -101 -13 l-109 0 -46 63 c-25 34
-121 166 -213 292 -93 127 -227 311 -300 410 -72 99 -200 274 -284 388 -84
115 -154 214 -157 221 -4 9 19 17 78 28 46 9 88 16 95 17 6 1 241 -313 521
-696z m114 -766 c245 -337 673 -922 950 -1302 277 -379 514 -705 527 -723 l23
-33 -24 6 c-525 121 -817 199 -1228 327 -350 108 -762 262 -1038 387 -132 59
-429 207 -454 225 -16 12 -15 21 13 132 109 434 283 840 533 1239 84 134 237
355 246 355 3 -1 206 -276 452 -613z m1761 -1802 c145 -198 261 -361 257 -363
-15 -6 -244 48 -256 60 -17 18 -474 647 -474 652 0 8 54 13 132 12 l78 -1 263
-360z m9637 -762 c0 -5 -4 -24 -9 -43 -5 -19 -12 -47 -15 -61 -5 -25 -9 -26
-93 -33 -49 -3 -153 -8 -233 -11 l-145 -6 235 80 c241 81 260 86 260 74z
m1018 -4520 c18 -147 33 -325 29 -329 -2 -2 -26 28 -54 66 l-50 71 -12 117
c-7 64 -15 127 -18 139 -5 23 8 30 63 32 l31 1 11 -97z m-718 -36 c10 -19 12
-30 4 -35 -5 -4 -143 -118 -305 -253 -383 -320 -548 -453 -864 -696 -923 -710
-1910 -1409 -2727 -1932 -199 -127 -209 -132 -254 -129 l-48 3 122 69 c190
107 450 281 439 292 -2 3 -141 -47 -307 -111 -167 -63 -305 -113 -306 -112 -2
1 109 87 247 191 137 104 248 191 246 193 -2 1 -109 -45 -238 -103 -314 -143
-339 -153 -339 -149 0 1 114 94 253 206 279 224 282 227 247 209 -69 -35 -686
-373 -693 -380 -5 -4 39 -73 97 -153 58 -80 106 -148 106 -151 0 -3 -20 -6
-44 -6 l-45 0 -110 152 c-87 120 -108 155 -98 164 6 7 147 96 312 199 380 238
874 571 1525 1030 449 316 1092 800 1847 1389 57 44 67 49 130 53 l68 5 -85
-87 -85 -87 145 95 c135 89 149 96 210 102 l65 7 -31 -33 c-56 -63 -218 -244
-239 -268 -21 -26 -17 -23 295 198 102 72 191 131 197 131 7 0 -75 -111 -183
-246 -107 -135 -194 -248 -191 -250 20 -20 570 454 573 494 1 9 2 21 3 25 2
19 46 0 61 -26z m499 -266 c89 -123 165 -229 167 -236 7 -17 -695 -602 -1291
-1076 -649 -517 -1044 -809 -1686 -1246 -220 -150 -273 -182 -310 -187 -24 -3
-150 -8 -279 -11 -129 -3 -311 -8 -405 -11 l-170 -5 40 33 c87 73 86 76 -8 23
l-97 -56 -91 3 -91 3 163 110 c408 273 1010 691 1439 999 684 490 1785 1342
2174 1681 207 180 262 223 271 213 7 -7 85 -114 174 -237z m-3284 -61 c566
-15 1185 -46 1185 -59 -1 -7 -106 -88 -470 -361 -421 -316 -906 -663 -1347
-963 l-171 -117 -64 14 c-134 31 -475 66 -649 66 l-66 0 -512 701 c-282 386
-511 703 -509 704 19 20 1995 31 2603 15z m-2703 -447 c168 -230 396 -543 508
-696 111 -153 201 -279 199 -281 -2 -2 -49 -6 -105 -9 l-100 -6 -221 302
c-121 166 -348 478 -506 694 l-286 392 32 6 c18 3 59 6 92 8 33 2 65 4 71 5 6
1 148 -186 316 -415z m-7310 119 c25 -42 80 -122 121 -177 649 -864 1994
-1552 3827 -1958 839 -186 1855 -328 2745 -382 50 -3 119 -8 155 -10 36 -3
128 -7 205 -11 77 -3 163 -7 190 -9 315 -25 2259 -25 2650 0 28 2 156 6 285
10 129 3 253 8 275 10 22 2 126 6 230 10 105 3 217 8 250 10 33 2 125 7 205
10 80 3 168 8 195 10 28 2 113 7 190 10 77 3 167 8 200 10 33 3 114 7 180 10
66 3 147 8 180 10 33 2 105 7 160 10 180 9 449 25 520 30 39 3 115 7 170 10
55 3 132 8 170 10 39 2 109 7 158 10 48 3 124 7 170 10 45 3 161 10 257 15 96
6 204 12 240 15 36 2 117 7 180 10 63 3 140 8 170 10 30 2 109 7 175 10 66 3
147 8 180 10 33 2 119 7 190 10 72 3 157 8 190 10 33 2 139 7 235 10 96 4 195
9 220 10 190 15 1134 25 1480 16 1035 -26 1966 -374 2645 -988 461 -417 779
-951 850 -1429 21 -138 21 -336 1 -429 -73 -335 -238 -528 -766 -895 -387
-269 -558 -428 -680 -630 -104 -174 -140 -325 -140 -594 1 -196 -12 -286 -55
-401 -65 -173 -174 -357 -325 -545 -104 -129 -385 -412 -541 -543 -107 -91
-361 -288 -365 -284 -1 1 -4 36 -8 77 -15 176 -19 211 -42 322 -115 553 -457
1018 -990 1344 -444 272 -985 442 -1784 559 -96 14 -190 27 -209 30 -99 15
-542 60 -691 70 -47 3 -105 8 -130 10 -25 2 -110 7 -190 10 -80 4 -161 8 -180
11 -19 2 -242 8 -495 15 -345 8 -605 8 -1040 -1 -319 -7 -600 -13 -625 -15
-25 -1 -153 -6 -285 -9 -132 -4 -265 -9 -295 -11 -30 -2 -147 -7 -260 -10
-113 -3 -232 -8 -265 -10 -33 -2 -145 -7 -250 -10 -104 -3 -217 -8 -250 -10
-33 -2 -161 -7 -285 -11 -124 -3 -241 -8 -260 -9 -19 -1 -190 -6 -380 -9 -190
-4 -351 -10 -359 -12 -16 -5 -1553 -4 -1636 1 -27 2 -142 6 -255 9 -113 4
-218 9 -235 11 -16 2 -84 7 -150 10 -66 4 -129 8 -140 10 -11 2 -58 7 -105 10
-47 3 -98 8 -115 10 -16 2 -93 11 -170 20 -1315 149 -2751 579 -3570 1068
-127 76 -206 131 -324 226 -257 207 -326 362 -481 1083 -96 449 -160 684 -253
938 -145 398 -382 825 -641 1155 -272 346 -419 693 -455 1070 -9 93 -6 356 4
435 13 94 37 228 56 309 24 104 108 361 117 361 4 -1 28 -35 54 -78z m13534
-172 c-9 -68 -17 -125 -20 -127 -2 -2 -20 23 -40 55 -51 84 -49 109 16 166 29
26 54 42 56 37 2 -5 -4 -64 -12 -131z m-6533 -136 c299 -408 1097 -1501 1125
-1540 l22 -32 -115 -72 c-64 -40 -117 -76 -120 -80 -3 -4 51 -85 120 -178 69
-94 125 -172 125 -174 0 -3 -68 -3 -520 7 -173 3 -333 8 -355 10 -22 2 -116 6
-210 10 -93 3 -188 8 -210 10 -22 2 -92 7 -155 10 -63 3 -133 8 -155 10 -22 2
-78 7 -125 10 -650 44 -1637 185 -2304 329 -331 72 -357 78 -354 87 2 4 56 65
120 137 151 166 447 455 583 568 439 366 1003 656 1755 902 225 74 608 183
625 178 6 -1 72 -88 148 -192z m6447 -269 c221 -447 319 -881 308 -1368 -5
-228 -5 -227 -66 -227 l-32 0 7 43 c5 23 8 152 7 287 0 225 -2 256 -28 385
-51 261 -114 486 -200 717 -57 153 -121 303 -130 303 -6 0 -925 -699 -922
-702 1 -1 46 14 101 34 218 76 445 108 592 84 293 -50 389 -271 410 -940 l6
-221 -29 -1 c-16 0 -40 -2 -54 -3 -14 -2 -79 -6 -145 -10 -188 -10 -285 -16
-345 -21 -30 -2 -116 -7 -190 -10 -74 -3 -146 -8 -159 -11 -28 -6 -32 -12 67
105 34 41 60 76 58 78 -2 3 -95 -25 -207 -61 -112 -36 -205 -64 -207 -62 -2 3
55 92 127 200 72 108 127 196 122 196 -5 0 -112 -31 -237 -69 -126 -38 -230
-68 -231 -67 -2 1 74 84 168 184 93 100 167 182 163 182 -4 0 -112 -46 -241
-101 -129 -56 -236 -100 -238 -97 -2 2 52 89 121 192 69 103 124 189 122 191
-2 2 -300 -214 -664 -480 l-661 -482 -136 -7 c-76 -4 -137 -5 -137 -2 0 2 64
48 143 102 731 500 1394 1009 2401 1843 l160 132 43 -68 c24 -37 83 -149 133
-248z m407 -547 c-3 -8 -6 -5 -6 6 -1 11 2 17 5 13 3 -3 4 -12 1 -19z m10 -50
c-3 -8 -6 -5 -6 6 -1 11 2 17 5 13 3 -3 4 -12 1 -19z m10 -60 c-3 -8 -6 -5 -6
6 -1 11 2 17 5 13 3 -3 4 -12 1 -19z m30 -160 c-3 -8 -6 -5 -6 6 -1 11 2 17 5
13 3 -3 4 -12 1 -19z m10 -80 c-3 -7 -5 -2 -5 12 0 14 2 19 5 13 2 -7 2 -19 0
-25z m82 -430 c45 -248 45 -248 32 -248 -12 0 -15 12 -60 300 -72 458 -60 435
28 -52z m-2694 -398 c-3 -5 -23 -10 -43 -9 -33 1 -34 2 -12 9 36 12 62 12 55
0z m2483 -4449 l64 -1 -22 -36 c-28 -44 -24 -78 20 -192 34 -88 59 -112 117
-112 15 0 171 48 346 106 175 58 322 102 326 98 12 -15 53 -296 44 -305 -7 -7
-383 -149 -396 -149 -3 0 -15 30 -27 68 -13 37 -25 70 -29 74 -9 10 -260 -68
-291 -91 -44 -32 -48 -80 -14 -179 33 -100 75 -152 120 -152 16 0 174 48 351
107 177 59 324 105 327 103 4 -4 45 -250 116 -695 11 -66 31 -190 44 -275 14
-85 50 -310 80 -500 31 -190 58 -358 61 -374 5 -28 4 -28 -31 -21 -64 12 -214
64 -303 106 -103 48 -157 81 -276 170 -93 69 -299 273 -315 312 -5 12 -106
441 -225 952 -119 512 -220 945 -225 963 l-9 34 42 -6 c23 -3 70 -5 105 -5z
m452 -51 c-20 -13 -50 -13 -50 0 0 6 15 10 33 10 24 0 28 -3 17 -10z m615 -75
l30 -6 39 -217 c65 -372 105 -592 133 -742 14 -80 26 -174 25 -209 -2 -63 -36
-272 -51 -314 -14 -36 -63 309 -51 358 8 34 -6 125 -86 575 -52 294 -97 543
-100 553 -5 15 -2 18 13 14 10 -3 32 -8 48 -12z m2532 -2176 c-6 -138 -17
-203 -17 -103 0 77 12 244 18 244 3 0 2 -64 -1 -141z m-2904 -165 c15 -9 12
-14 -27 -42 l-44 -32 -16 65 c-9 35 -16 67 -16 70 0 3 19 -7 43 -23 23 -16 50
-33 60 -38z m2884 -46 c-3 -7 -5 -2 -5 12 0 14 2 19 5 13 2 -7 2 -19 0 -25z"/>
<path d="M26540 45734 c-161 -54 -345 -160 -622 -358 -253 -180 -366 -286
-467 -435 -217 -319 -262 -790 -135 -1421 43 -215 131 -571 144 -584 7 -7 14
-6 22 2 9 9 7 39 -10 129 -30 165 -54 374 -67 583 -14 241 -17 308 -20 455 -7
384 52 589 233 803 96 113 239 216 542 392 276 160 353 212 458 312 54 52 65
85 42 129 -14 25 -29 24 -120 -7z"/>
<path d="M24957 44296 c-7 -8 -22 -51 -31 -95 -49 -225 -43 -489 20 -901 28
-182 41 -212 74 -172 15 18 18 33 14 65 -3 23 -7 269 -8 547 -1 278 -6 515
-10 528 -10 31 -41 46 -59 28z"/>
<path d="M23770 42854 c-280 -47 -527 -145 -775 -308 -603 -397 -1067 -1051
-1315 -1856 -82 -265 -161 -641 -190 -900 -6 -52 -13 -108 -15 -125 -11 -80
-20 -322 -19 -520 4 -675 145 -1290 415 -1804 78 -148 206 -341 307 -461 156
-187 450 -443 479 -418 27 22 10 51 -87 154 -497 528 -825 1257 -915 2034 -25
222 -30 301 -29 525 4 917 267 1817 716 2448 98 138 171 223 306 361 281 284
629 514 1092 722 107 48 131 74 114 121 -10 29 -30 35 -84 27z"/>
<path d="M24613 42770 c-23 -9 -31 -34 -14 -44 5 -3 26 -8 47 -11 136 -21 176
-28 277 -54 455 -118 867 -392 1188 -791 116 -145 265 -394 337 -567 25 -59
46 -67 60 -25 6 19 2 58 -15 140 -73 346 -238 646 -490 894 -233 229 -508 372
-839 438 -85 17 -156 23 -319 26 -123 2 -219 0 -232 -6z"/>
<path d="M24320 42463 c-85 -11 -273 -58 -360 -90 -683 -252 -1279 -917 -1655
-1848 -246 -610 -300 -1345 -153 -2085 136 -682 456 -1300 858 -1657 314 -278
641 -405 1080 -420 453 -15 825 101 1186 370 317 236 579 573 809 1042 188
385 317 772 409 1235 60 296 78 466 79 715 0 525 -119 1015 -365 1498 -335
657 -822 1092 -1367 1219 -67 15 -130 20 -286 23 -110 2 -216 1 -235 -2z m336
-618 c305 -53 593 -233 833 -521 364 -437 588 -1055 589 -1629 0 -467 -166
-1121 -406 -1597 -279 -551 -635 -894 -1067 -1027 -284 -87 -643 -82 -908 13
-564 201 -995 877 -1126 1763 -32 212 -35 640 -7 838 61 429 215 831 474 1230
162 250 393 503 592 647 193 140 429 246 626 282 106 19 291 19 400 1z"/>
<path d="M26902 41398 c-18 -18 -15 -54 12 -148 65 -224 120 -519 153 -815 25
-228 24 -1007 -2 -1089 -2 -6 -6 -40 -10 -76 -3 -36 -17 -132 -30 -215 -83
-512 -226 -972 -440 -1410 -133 -273 -251 -467 -544 -895 -147 -215 -171 -258
-144 -267 17 -6 267 245 355 357 314 397 602 964 767 1510 77 255 153 604 175
800 13 113 18 156 22 179 21 140 25 737 5 919 -32 306 -116 659 -242 1017 -46
132 -58 152 -77 133z"/>
<path d="M23615 35698 c-2 -7 -531 -2033 -1174 -4501 l-1170 -4489 377 -1628
c207 -896 378 -1627 380 -1625 2 2 -89 712 -203 1577 l-207 1573 1066 4505
c587 2478 1069 4513 1072 4522 4 13 -10 24 -62 48 -77 35 -73 34 -79 18z"/>
<path d="M23847 33702 l-57 -207 -285 -2705 -286 -2705 52 -180 c56 -193 68
-226 69 -185 0 14 128 1411 284 3105 156 1694 283 3081 282 3082 -1 1 -27 -91
-59 -205z"/>
<path d="M22439 27055 c-31 -8 -84 -27 -118 -44 -229 -110 -363 -325 -362
-576 0 -176 58 -314 185 -441 133 -133 265 -187 456 -187 87 0 118 4 181 26
183 63 311 178 389 350 38 84 50 150 50 267 0 161 -52 295 -161 414 -85 93
-202 163 -322 191 -77 18 -223 18 -298 0z m231 -126 c302 -48 491 -364 390
-653 -115 -335 -537 -445 -800 -209 -135 121 -196 308 -156 477 53 226 242
381 481 395 11 0 49 -4 85 -10z"/>
<path d="M22488 26761 c-72 -24 -117 -52 -162 -101 -75 -83 -114 -205 -96
-300 13 -70 44 -125 108 -192 59 -62 87 -78 50 -28 -48 65 -34 188 32 278 103
142 343 111 429 -56 l18 -36 29 44 c25 38 29 53 29 114 -1 120 -58 213 -163
262 -76 36 -192 42 -274 15z"/>
<path d="M22031 23424 c0 -11 3 -14 6 -6 3 7 2 16 -1 19 -3 4 -6 -2 -5 -13z"/>
<path d="M10755 42549 c-65 -6 -82 -11 -97 -29 -37 -46 -19 -89 49 -118 115
-49 285 -81 663 -122 424 -46 627 -125 814 -316 122 -125 206 -279 350 -640
126 -320 199 -534 251 -739 23 -93 48 -171 55 -173 33 -11 30 20 -40 409 -96
530 -234 900 -441 1175 -189 253 -400 372 -814 463 -363 79 -600 106 -790 90z"/>
<path d="M12750 41851 c-5 -11 -10 -30 -10 -44 0 -42 48 -166 126 -326 87
-178 161 -351 244 -566 46 -117 63 -151 78 -153 37 -6 42 42 14 143 -57 214
-211 634 -285 781 -46 92 -116 184 -138 184 -10 0 -23 -9 -29 -19z"/>
<path d="M14810 41084 c-174 -17 -387 -60 -417 -86 -17 -13 -17 -72 0 -86 7
-6 115 -13 257 -16 388 -10 581 -34 815 -101 764 -219 1435 -732 1969 -1505
461 -667 732 -1385 797 -2109 16 -179 6 -541 -20 -731 -31 -234 -99 -507 -174
-704 -34 -91 -38 -140 -9 -134 22 4 113 171 171 312 133 325 190 613 196 1001
7 446 -57 842 -214 1312 -230 689 -651 1372 -1157 1879 -536 536 -1184 875
-1824 954 -90 11 -330 19 -390 14z"/>
<path d="M13588 40566 c-118 -48 -217 -100 -323 -168 -581 -374 -878 -1104
-734 -1806 21 -103 33 -132 54 -132 20 0 23 21 29 215 13 395 111 746 303
1083 173 302 450 588 734 757 72 43 90 61 82 81 -8 22 -30 17 -145 -30z"/>
<path d="M14370 40519 c-741 -95 -1249 -617 -1435 -1474 -51 -235 -60 -330
-60 -660 0 -334 7 -416 56 -672 74 -385 214 -738 418 -1057 389 -610 846
-1103 1321 -1425 348 -236 659 -369 1005 -428 139 -23 445 -23 575 0 296 54
586 177 829 352 366 264 601 704 688 1290 22 151 25 642 5 805 -89 720 -349
1387 -740 1905 -228 300 -588 630 -951 870 -429 283 -857 449 -1273 494 -112
13 -343 12 -438 0z m666 -614 c447 -90 874 -326 1309 -722 502 -456 837 -1162
914 -1923 14 -141 7 -475 -14 -605 -58 -373 -187 -657 -395 -865 -177 -178
-446 -320 -728 -382 -140 -32 -414 -31 -559 0 -310 67 -592 208 -903 452 -132
103 -458 430 -571 572 -173 218 -327 446 -420 623 -143 272 -237 604 -270 948
-11 120 -8 474 5 537 2 14 10 61 16 104 53 363 206 706 410 920 204 215 439
327 775 369 86 11 309 -3 431 -28z"/>
<path d="M12143 38414 c-8 -22 4 -191 28 -369 120 -910 469 -1708 1060 -2420
106 -127 393 -420 529 -539 320 -282 667 -514 959 -642 133 -58 308 -117 327
-110 44 17 -1 52 -241 186 -175 98 -238 139 -428 282 -356 267 -587 469 -803
699 -364 389 -648 802 -894 1304 -194 396 -327 768 -415 1165 -22 102 -75 415
-75 448 0 18 -40 15 -47 -4z"/>
<path d="M37256 38880 c-113 -100 -72 -304 77 -390 97 -56 213 -36 290 50 50
55 69 101 70 170 0 73 -7 92 -44 114 l-31 18 8 -23 c26 -72 -8 -158 -72 -185
-149 -62 -299 102 -238 260 10 27 -22 19 -60 -14z"/>
<path d="M11095 34424 c-16 -2 -70 -9 -120 -15 -135 -17 -137 -18 -68 -64 640
-423 1123 -1223 1204 -1994 17 -162 6 -511 -20 -666 -88 -516 -307 -930 -701
-1325 -419 -420 -926 -678 -1505 -766 -168 -26 -552 -26 -715 -1 -134 21 -290
56 -410 91 -46 14 -86 23 -88 21 -8 -7 47 -92 106 -167 201 -252 536 -460 868
-539 123 -29 283 -49 400 -49 l102 0 1868 1391 c1028 765 1875 1397 1882 1404
11 10 11 32 2 116 -41 380 -209 810 -473 1207 -134 201 -249 343 -412 511
-434 446 -941 734 -1445 821 -118 20 -401 35 -475 24z"/>
<path d="M14455 31507 c-218 -127 -404 -240 -520 -317 -134 -89 -295 -206
-295 -215 0 -5 14 1 450 190 395 171 368 160 350 142 -8 -8 -161 -124 -340
-257 -179 -133 -332 -249 -340 -257 -8 -8 162 74 379 182 216 108 395 195 397
193 1 -2 -151 -125 -338 -273 -405 -320 -379 -299 -353 -286 48 23 937 538
939 542 2 10 -269 378 -279 379 -5 0 -28 -11 -50 -23z"/>
<path d="M12860 30406 c-476 -214 -879 -485 -1200 -806 -117 -118 -291 -315
-250 -284 8 6 118 93 244 193 504 401 991 749 1283 918 60 35 26 26 -77 -21z"/>
<path d="M12876 30260 c-399 -186 -708 -389 -1011 -666 -140 -128 -355 -357
-355 -377 0 -4 51 33 113 81 523 410 1129 852 1362 995 33 20 56 36 50 36 -5
1 -77 -31 -159 -69z"/>
<path d="M13070 30197 c-464 -222 -673 -345 -910 -538 -117 -94 -517 -486
-539 -526 -6 -13 147 95 341 240 570 424 893 660 1072 780 103 70 112 81 36
44z"/>
<path d="M12995 30006 c-339 -165 -561 -302 -765 -473 -112 -93 -415 -393
-490 -483 -44 -54 -45 -55 -10 -29 19 14 355 259 745 544 391 285 714 522 720
526 23 21 -22 3 -200 -85z"/>
<path d="M10644 28794 c-225 -161 -715 -578 -714 -608 1 -18 265 -371 278
-371 9 0 398 351 781 703 43 40 27 33 -54 -23 -33 -23 -199 -136 -370 -250
l-310 -209 75 82 c41 44 181 190 310 323 129 134 229 239 221 234 -8 -4 -169
-118 -358 -253 -190 -134 -346 -242 -347 -240 -2 1 109 131 246 288 291 332
332 380 325 380 -3 0 -40 -25 -83 -56z"/>
<path d="M14775 30776 c-11 -7 -72 -41 -135 -76 -190 -104 -517 -320 -485
-320 5 0 145 52 311 115 167 63 306 115 310 115 4 0 -107 -86 -247 -191 -230
-172 -294 -223 -264 -207 15 9 526 239 565 255 45 19 54 27 -220 -192 -129
-103 -244 -197 -255 -208 l-20 -20 25 15 c14 8 177 97 363 198 226 123 334
187 329 194 -5 6 -62 84 -127 174 -65 89 -121 162 -124 161 -3 0 -15 -6 -26
-13z"/>
<path d="M13390 29741 c-483 -220 -876 -486 -1200 -811 -105 -106 -249 -270
-236 -270 3 0 98 75 213 167 438 350 949 721 1198 869 189 113 194 122 25 45z"/>
<path d="M13429 29606 c-423 -195 -776 -432 -1090 -733 -92 -89 -264 -277
-282 -310 -5 -8 44 26 110 76 682 525 884 674 1183 873 124 83 227 152 229
154 15 13 -31 -5 -150 -60z"/>
<path d="M13415 29441 c-465 -229 -724 -417 -1067 -770 -139 -143 -229 -247
-188 -215 81 61 810 603 924 687 82 60 240 172 350 249 111 77 205 144 211
149 24 23 -26 1 -230 -100z"/>
<path d="M11055 28124 c-120 -92 -257 -210 -384 -330 l-93 -89 112 -155 c62
-85 120 -163 129 -173 17 -17 30 -6 292 244 311 297 330 315 309 303 -8 -4
-136 -88 -283 -187 -148 -98 -270 -177 -272 -175 -1 2 97 113 218 247 122 135
215 241 207 236 -8 -5 -129 -89 -268 -188 -140 -98 -255 -177 -257 -175 -1 2
80 107 182 233 213 266 227 285 216 285 -4 0 -53 -34 -108 -76z"/>
<path d="M17600 24986 c0 -7 1076 -1484 1099 -1508 11 -12 74 -29 201 -53 102
-19 223 -44 270 -54 47 -11 86 -18 86 -18 2 3 -1115 1530 -1128 1544 -7 6
-112 28 -233 48 -297 48 -295 48 -295 41z"/>
<path d="M9896 22595 c5 -11 30 -58 58 -105 168 -285 464 -590 812 -837 685
-486 1773 -856 2784 -948 286 -26 282 -21 -55 64 -1766 447 -2856 982 -3492
1715 -53 61 -101 116 -105 121 -6 6 -6 2 -2 -10z"/>
<path d="M28855 21741 c-259 -32 -1340 -184 -1347 -190 -5 -5 59 -493 65 -497
1 -1 37 3 81 9 54 7 80 6 85 -1 3 -6 39 -247 80 -537 58 -419 71 -529 60 -535
-7 -5 -43 -11 -81 -15 -61 -6 -68 -9 -68 -29 0 -11 14 -126 32 -254 l32 -233
26 5 c14 3 268 40 565 81 297 42 541 78 543 79 3 4 -54 431 -64 475 -5 22 -8
23 -62 16 -31 -3 -66 -9 -78 -11 -20 -5 -22 2 -44 160 -12 91 -20 172 -17 179
3 8 41 18 103 26 55 7 108 15 120 17 18 5 63 -51 310 -391 283 -388 289 -396
319 -391 16 3 185 26 375 52 190 27 346 48 347 49 1 0 -14 111 -32 245 -19
135 -35 249 -35 254 0 4 -6 6 -13 3 -8 -3 -42 -8 -78 -12 l-64 -6 -155 191
c-85 105 -163 202 -173 216 l-19 24 58 52 c72 66 128 152 154 236 25 79 27
231 5 316 -49 187 -201 344 -395 408 -92 31 -417 35 -635 9z m120 -506 c68
-39 105 -132 84 -211 -12 -42 -58 -97 -99 -119 -47 -24 -342 -76 -356 -63 -5
6 -54 339 -54 370 0 21 12 24 160 43 148 18 209 14 265 -20z"/>
<path d="M26180 21352 c-542 -80 -986 -146 -988 -147 -3 -2 66 -475 72 -491 3
-8 27 -7 83 2 43 6 79 11 80 10 3 -3 162 -1081 159 -1083 -1 -1 -37 -8 -79
-14 -51 -8 -77 -16 -77 -24 0 -26 70 -478 75 -483 6 -6 1974 284 1982 292 4 4
-85 653 -91 663 -3 4 -540 -77 -544 -82 -3 -2 1 -39 7 -81 6 -42 9 -79 7 -81
-6 -6 -460 -72 -465 -68 -7 8 -53 327 -47 332 3 4 95 19 203 35 109 16 199 30
200 32 3 2 -57 419 -61 422 0 1 -86 -11 -191 -27 -104 -15 -197 -28 -206 -29
-13 0 -20 29 -38 156 -12 86 -21 158 -19 159 2 2 107 19 235 37 l232 35 5 -21
c2 -12 8 -49 12 -83 4 -36 11 -63 18 -63 29 1 529 79 533 84 10 10 -90 666
-101 665 -6 -1 -454 -67 -996 -147z"/>
<path d="M15321 21223 c-29 -130 -55 -242 -58 -248 -3 -8 26 -18 82 -30 47
-10 88 -21 90 -25 3 -5 -104 -493 -210 -956 l-26 -112 -86 20 c-47 10 -88 17
-90 14 -11 -10 -112 -481 -105 -487 10 -8 1245 -286 1404 -315 179 -33 357
-54 461 -54 286 0 491 130 576 364 34 96 36 241 3 331 -43 117 -138 232 -254
307 -52 34 -54 48 -5 48 127 1 298 98 361 203 60 103 78 276 42 387 -57 171
-177 282 -400 369 -153 60 -303 97 -1031 261 -368 83 -677 153 -686 156 -13 3
-25 -36 -68 -233z m1054 -467 c183 -44 250 -78 281 -139 37 -70 6 -193 -59
-239 -27 -19 -45 -23 -112 -23 -74 1 -276 37 -306 56 -10 6 -5 45 25 176 45
201 42 193 58 193 7 0 58 -11 113 -24z m-135 -760 c74 -18 156 -43 182 -56 59
-27 105 -78 114 -125 14 -77 -22 -176 -79 -219 -42 -31 -204 -28 -350 7 -60
14 -111 27 -113 30 -4 3 67 328 82 380 7 22 7 22 164 -17z"/>
<path d="M31500 21137 c-3 -2 -57 -7 -120 -11 -63 -4 -146 -11 -185 -16 -38
-5 -79 -9 -89 -10 -11 0 -17 -2 -15 -4 5 -5 90 -12 274 -21 536 -28 1170 -121
1645 -240 1096 -275 1878 -723 2459 -1410 133 -156 135 -157 43 -5 -123 201
-231 339 -402 513 -483 496 -1121 839 -1935 1041 -270 67 -527 109 -860 142
-146 15 -804 31 -815 21z"/>
<path d="M24129 21060 c-117 -10 -1502 -180 -1507 -185 -5 -5 56 -486 62 -492
3 -3 43 -1 88 4 46 6 85 9 87 7 2 -2 34 -246 70 -544 59 -472 65 -540 51 -544
-8 -3 -48 -8 -87 -12 l-73 -7 1 -36 c0 -20 12 -133 27 -251 l27 -215 30 2 c64
6 1188 144 1325 164 477 68 718 160 838 321 82 110 112 196 112 329 0 251
-167 448 -439 517 l-72 19 68 39 c84 49 182 144 212 206 55 116 50 260 -14
397 -62 130 -183 225 -340 266 -74 20 -317 27 -466 15z m-100 -501 c119 -25
174 -179 103 -286 -31 -49 -127 -80 -315 -103 -54 -6 -100 -10 -101 -8 -6 7
-47 370 -43 375 7 6 208 30 264 32 23 1 65 -4 92 -10z m165 -773 c68 -28 115
-132 101 -224 -15 -99 -112 -151 -341 -179 -73 -10 -135 -15 -138 -13 -8 9
-54 395 -47 402 11 13 246 37 319 33 39 -3 87 -11 106 -19z"/>
<path d="M18070 20635 c-13 -135 -21 -248 -18 -251 3 -3 38 -8 77 -11 39 -3
74 -9 76 -13 2 -3 -108 -240 -244 -526 l-248 -519 -82 4 c-44 2 -81 2 -81 0 0
-2 -11 -114 -25 -248 -14 -135 -24 -246 -22 -247 6 -6 820 -84 825 -79 6 6 53
448 48 453 -2 1 -34 5 -72 9 -38 3 -74 8 -80 12 -8 4 6 44 42 121 30 63 55
119 57 123 2 8 526 -40 536 -49 5 -4 50 -224 51 -248 0 -17 -6 -18 -89 -11
l-88 7 -6 -49 c-15 -115 -40 -403 -36 -407 5 -5 1083 -114 1088 -110 4 3 50
442 51 480 0 20 -7 22 -75 29 -57 5 -75 11 -79 23 -9 30 -286 1108 -286 1113
0 3 37 1 81 -3 45 -5 82 -8 84 -6 1 2 13 114 27 250 l24 248 -31 5 c-44 7
-1428 145 -1456 145 l-25 0 -24 -245z m680 -668 c29 -147 51 -270 48 -273 -9
-8 -358 28 -358 38 0 4 48 113 106 241 59 127 113 248 122 267 19 46 17 52 82
-273z"/>
<path d="M21300 20784 c-19 -2 -296 -17 -615 -34 -319 -17 -594 -33 -610 -35
l-30 -5 12 -203 c6 -111 12 -224 12 -251 l1 -49 85 7 c82 6 85 5 89 -16 5 -27
57 -973 56 -1035 0 -42 -1 -43 -32 -43 -18 0 -56 -3 -83 -6 l-50 -6 14 -247
c7 -135 15 -248 17 -250 4 -5 1136 57 1141 62 1 2 -4 111 -12 242 -8 132 -15
245 -15 250 0 6 -31 9 -79 7 l-79 -3 -6 108 c-3 59 -9 138 -12 175 l-6 66 54
6 c29 3 88 7 130 9 l77 4 252 -416 c139 -229 253 -417 253 -418 1 0 173 8 383
20 l381 21 -4 51 c-6 67 -24 399 -24 431 0 25 0 25 -77 22 l-77 -3 -157 230
-157 229 47 32 c224 151 296 465 165 715 -90 171 -251 282 -464 319 -62 11
-506 22 -580 14z m110 -475 c59 -13 116 -57 136 -106 23 -53 18 -130 -11 -179
-37 -63 -101 -91 -240 -104 -60 -5 -133 -10 -161 -10 l-52 0 -6 73 c-3 39 -9
129 -12 199 l-7 127 79 4 c175 7 225 7 274 -4z"/>
<path d="M22688 17087 c-133 -109 -544 -412 -979 -722 -261 -186 -478 -342
-484 -347 -35 -32 390 175 534 259 339 199 624 440 955 811 21 23 36 42 33 42
-3 0 -29 -20 -59 -43z"/>
<path d="M22762 16965 c-195 -169 -552 -434 -1077 -799 -203 -142 -374 -262
-380 -268 -37 -36 394 173 550 267 291 176 588 422 837 692 96 103 156 174
146 172 -2 0 -36 -29 -76 -64z"/>
<path d="M22845 16848 c-255 -229 -695 -555 -1230 -911 -132 -88 -244 -164
-250 -169 -35 -33 296 118 445 203 332 189 599 398 890 695 134 138 249 265
238 264 -1 -1 -43 -37 -93 -82z"/>
<path d="M24239 17379 c-200 -182 -382 -349 -404 -372 -24 -24 103 56 325 205
201 135 372 248 380 253 8 5 -91 -100 -220 -234 -285 -293 -385 -402 -345
-375 17 12 165 117 330 234 165 117 314 222 330 233 38 26 59 52 -271 -328
-149 -170 -274 -317 -279 -325 -11 -17 95 56 220 154 129 100 374 309 485 413
l94 90 -133 184 c-74 101 -137 188 -141 192 -4 5 -171 -141 -371 -324z"/>
<path d="M22375 15979 c-407 -297 -744 -545 -750 -550 -15 -15 125 50 313 146
413 208 610 352 942 685 149 149 251 261 238 260 -1 0 -336 -244 -743 -541z"/>
<path d="M23185 16394 c-119 -100 -527 -400 -1109 -816 -214 -153 -386 -278
-382 -278 18 0 266 118 400 191 378 204 667 428 952 737 59 64 124 134 143
155 40 43 39 47 -4 11z"/>
<path d="M23254 16272 c-155 -145 -700 -548 -1286 -951 -115 -79 -208 -144
-208 -146 0 -14 277 116 435 204 361 202 683 457 967 768 157 172 189 215 92
125z"/>
<path d="M23305 16128 c-251 -225 -631 -507 -1184 -880 -162 -109 -292 -198
-288 -198 4 0 39 13 79 29 454 182 926 517 1313 931 87 93 180 200 173 200 -1
-1 -43 -37 -93 -82z"/>
<path d="M17330 13890 c-253 -36 -441 -198 -506 -438 -36 -134 -28 -286 23
-406 66 -158 165 -260 453 -468 196 -142 276 -218 286 -273 10 -56 -12 -113
-56 -143 -30 -21 -44 -23 -96 -19 -115 9 -202 66 -253 169 -17 33 -34 83 -37
109 -4 27 -11 52 -16 55 -18 11 -453 93 -459 86 -8 -9 -133 -652 -128 -656 4
-3 411 -84 448 -89 14 -2 18 10 37 100 4 21 10 18 82 -42 154 -130 343 -198
547 -198 132 0 207 18 320 76 103 53 218 164 264 256 90 177 94 394 12 575
-69 152 -128 212 -486 490 -222 173 -262 210 -270 247 -9 39 11 101 41 130 22
21 35 24 92 24 81 -1 142 -26 197 -80 43 -43 82 -121 91 -181 l6 -42 231 -45
c127 -26 232 -45 234 -44 10 11 114 580 107 586 -8 7 -425 91 -452 91 -5 0
-15 -27 -21 -59 l-12 -59 -54 52 c-126 119 -291 186 -495 199 -41 3 -100 2
-130 -3z"/>
<path d="M13225 13740 c12 -42 89 -142 162 -211 287 -270 845 -458 1543 -518
110 -10 679 -6 765 4 141 18 129 21 -395 100 -1039 157 -1541 285 -1857 471
-71 42 -178 124 -212 163 -11 14 -12 13 -6 -9z"/>
<path d="M24630 13678 c-349 -22 -636 -41 -638 -43 -1 -1 4 -105 13 -231 8
-126 15 -239 15 -250 0 -21 3 -22 103 -17 l103 6 33 -542 c18 -298 30 -545 27
-549 -4 -3 -49 -8 -101 -10 -89 -4 -95 -6 -95 -26 0 -45 30 -479 33 -482 6 -7
1212 69 1220 76 8 7 -1 191 -19 423 l-6 78 -103 -7 -103 -7 -6 54 c-3 30 -8
95 -11 146 l-6 91 53 6 c29 3 132 10 228 16 306 18 490 49 617 101 184 77 323
226 368 395 22 79 22 259 0 338 -61 228 -245 392 -505 451 -57 13 -135 18
-330 20 -212 3 -363 -3 -890 -37z m755 -439 c58 -16 95 -46 117 -96 21 -47 26
-132 10 -173 -30 -76 -129 -109 -373 -124 l-76 -4 -7 111 c-4 62 -9 151 -13
199 l-6 87 69 4 c155 7 241 6 279 -4z"/>
<path d="M18726 13483 c-3 -76 -9 -188 -12 -249 l-6 -111 77 -6 c42 -3 79 -8
82 -11 5 -4 -35 -1059 -41 -1080 -1 -5 -36 -8 -78 -7 l-76 2 -6 -83 c-4 -46
-7 -159 -9 -253 l-2 -170 410 -16 c226 -9 474 -20 551 -23 l142 -7 6 178 c3
98 9 213 12 255 l6 77 -68 3 -69 3 3 120 c1 66 5 144 8 172 6 47 9 52 28 48
11 -2 119 -7 239 -11 l217 -6 0 -98 c0 -53 -3 -132 -7 -175 l-6 -78 -67 6 -67
6 -9 -252 c-6 -139 -10 -253 -9 -254 0 -2 995 -43 1056 -43 l56 0 7 223 c4
122 9 234 12 248 5 26 4 26 -71 32 -43 3 -79 8 -82 11 -6 6 37 1079 43 1086 3
2 38 3 79 1 l73 -3 6 94 c4 51 7 165 9 253 l2 160 -515 22 c-283 12 -531 22
-551 22 l-37 1 -6 -132 c-4 -73 -9 -188 -12 -255 l-6 -122 68 -3 68 -3 -2
-115 c-2 -63 -5 -135 -9 -159 l-6 -43 -161 6 c-88 4 -196 9 -238 12 l-78 6 0
98 c0 53 3 125 7 160 l6 62 63 -4 63 -4 5 36 c3 19 8 133 12 253 l6 217 -23 0
c-13 0 -231 9 -484 20 -253 11 -492 20 -531 20 l-72 0 -6 -137z"/>
<path d="M22387 13605 c-251 -41 -444 -132 -617 -292 -176 -163 -295 -390
-330 -632 -15 -102 -8 -306 14 -407 86 -396 385 -696 801 -801 82 -20 132 -26
285 -30 116 -4 218 -1 273 6 404 54 711 265 884 606 162 319 147 716 -38 1027
-158 267 -403 443 -714 513 -100 23 -441 29 -558 10z m292 -491 c66 -19 123
-76 150 -149 45 -120 56 -214 56 -500 0 -256 -1 -274 -24 -345 -44 -142 -152
-211 -284 -181 -71 15 -119 57 -156 134 -39 81 -58 176 -72 372 -17 245 2 460
49 551 29 55 82 103 133 119 58 18 85 18 148 -1z"/>
<path d="M27480 12658 c-113 -4 -223 -11 -245 -16 -36 -7 -28 -9 73 -20 898
-99 1576 -327 2063 -694 315 -236 526 -513 714 -933 l36 -80 -6 50 c-4 27 -18
95 -32 149 -163 645 -680 1147 -1431 1390 -257 83 -559 140 -802 151 -69 4
-134 7 -145 9 -11 1 -112 -1 -225 -6z"/>
<path d="M26152 8779 c-57 -221 -102 -402 -100 -404 9 -9 333 -155 338 -153 7
4 -122 958 -130 958 -3 0 -52 -180 -108 -401z"/>
</g>
</svg>
